<?xml version="1.0" encoding="utf-8"?>
<svg viewBox="4.607 4.498 421.297 62.819" xmlns="http://www.w3.org/2000/svg">
  <path d="M 9.64699987411499 38.28200134277344 Q 10.45699987411499 36.87200134277344 12.06199987411499 35.92700134277344 Q 13.66699987411499 34.98200134277344 15.79699987411499 34.98200134277344 Q 17.98699987411499 34.98200134277344 19.77199987411499 36.03200134277344 Q 21.55699987411499 37.08200134277344 22.57699987411499 38.98700134277344 Q 23.59699987411499 40.89200134277344 23.59699987411499 43.412001342773436 Q 23.59699987411499 45.90200134277344 22.57699987411499 47.852001342773434 Q 21.55699987411499 49.80200134277344 19.77199987411499 50.882001342773435 Q 17.98699987411499 51.96200134277344 15.79699987411499 51.96200134277344 Q 13.69699987411499 51.96200134277344 12.09199987411499 51.01700134277344 Q 10.48699987411499 50.07200134277344 9.64699987411499 48.662001342773436 L 9.64699987411499 59.492001342773435 L 6.916999874114991 59.492001342773435 L 6.916999874114991 35.25200134277344 L 9.64699987411499 35.25200134277344 L 9.64699987411499 38.28200134277344 Z M 20.80699987411499 43.412001342773436 Q 20.80699987411499 41.55200134277344 20.05699987411499 40.17200134277344 Q 19.30699987411499 38.79200134277344 18.031999874114987 38.07200134277344 Q 16.75699987411499 37.352001342773434 15.22699987411499 37.352001342773434 Q 13.72699987411499 37.352001342773434 12.451999874114989 38.08700134277344 Q 11.17699987411499 38.82200134277344 10.41199987411499 40.217001342773436 Q 9.64699987411499 41.61200134277344 9.64699987411499 43.44200134277344 Q 9.64699987411499 45.30200134277344 10.41199987411499 46.69700134277344 Q 11.17699987411499 48.092001342773436 12.451999874114989 48.827001342773436 Q 13.72699987411499 49.562001342773435 15.22699987411499 49.562001342773435 Q 16.75699987411499 49.562001342773435 18.031999874114987 48.827001342773436 Q 19.30699987411499 48.092001342773436 20.05699987411499 46.69700134277344 Q 20.80699987411499 45.30200134277344 20.80699987411499 43.412001342773436 Z M 34.362535934448246 51.96200134277344 Q 32.052535934448244 51.96200134277344 30.177535934448244 50.912001342773436 Q 28.302535934448244 49.86200134277344 27.237535934448243 47.92700134277344 Q 26.17253593444824 45.992001342773435 26.17253593444824 43.44200134277344 Q 26.17253593444824 40.92200134277344 27.26753593444824 38.98700134277344 Q 28.362535934448243 37.05200134277344 30.252535934448243 36.01700134277344 Q 32.14253593444824 34.98200134277344 34.482535934448244 34.98200134277344 Q 36.82253593444824 34.98200134277344 38.71253593444824 36.01700134277344 Q 40.60253593444824 37.05200134277344 41.69753593444824 38.97200134277344 Q 42.79253593444824 40.89200134277344 42.79253593444824 43.44200134277344 Q 42.79253593444824 45.992001342773435 41.66753593444824 47.92700134277344 Q 40.54253593444824 49.86200134277344 38.622535934448244 50.912001342773436 Q 36.70253593444824 51.96200134277344 34.362535934448246 51.96200134277344 Z M 34.362535934448246 49.562001342773435 Q 35.832535934448245 49.562001342773435 37.122535934448244 48.87200134277344 Q 38.41253593444824 48.18200134277344 39.207535934448245 46.80200134277344 Q 40.00253593444824 45.42200134277344 40.00253593444824 43.44200134277344 Q 40.00253593444824 41.46200134277343 39.222535934448246 40.08200134277344 Q 38.442535934448244 38.702001342773436 37.18253593444824 38.02700134277344 Q 35.92253593444824 37.352001342773434 34.45253593444824 37.352001342773434 Q 32.95253593444824 37.352001342773434 31.70753593444824 38.02700134277344 Q 30.46253593444824 38.702001342773436 29.71253593444824 40.08200134277344 Q 28.96253593444824 41.46200134277343 28.96253593444824 43.44200134277344 Q 28.96253593444824 45.452001342773436 29.69753593444824 46.83200134277344 Q 30.432535934448243 48.21200134277344 31.662535934448243 48.88700134277344 Q 32.89253593444824 49.562001342773435 34.362535934448246 49.562001342773435 Z M 68.28983398437501 35.25200134277344 L 63.159833984375 51.69200134277344 L 60.339833984375 51.69200134277344 L 56.379833984375 38.64200134277344 L 52.419833984375 51.69200134277344 L 49.599833984374996 51.69200134277344 L 44.439833984375 35.25200134277344 L 47.229833984375 35.25200134277344 L 51.009833984375 49.05200134277344 L 55.089833984375 35.25200134277344 L 57.879833984375 35.25200134277344 L 61.869833984375 49.08200134277344 L 65.58983398437499 35.25200134277344 Z M 85.98612457275391 42.842001342773436 Q 85.98612457275391 43.62200134277344 85.8961245727539 44.492001342773435 L 72.7561245727539 44.492001342773435 Q 72.90612457275391 46.92200134277344 74.42112457275391 48.287001342773436 Q 75.93612457275391 49.65200134277344 78.09612457275391 49.65200134277344 Q 79.8661245727539 49.65200134277344 81.0511245727539 48.827001342773436 Q 82.23612457275391 48.00200134277344 82.7161245727539 46.62200134277344 L 85.65612457275391 46.62200134277344 Q 84.9961245727539 48.992001342773435 83.01612457275391 50.477001342773434 Q 81.0361245727539 51.96200134277344 78.09612457275391 51.96200134277344 Q 75.7561245727539 51.96200134277344 73.9111245727539 50.912001342773436 Q 72.0661245727539 49.86200134277344 71.01612457275391 47.92700134277344 Q 69.96612457275391 45.992001342773435 69.96612457275391 43.44200134277344 Q 69.96612457275391 40.89200134277344 70.98612457275391 38.97200134277344 Q 72.0061245727539 37.05200134277344 73.8511245727539 36.01700134277344 Q 75.6961245727539 34.98200134277344 78.09612457275391 34.98200134277344 Q 80.43612457275391 34.98200134277344 82.23612457275391 36.00200134277344 Q 84.0361245727539 37.022001342773436 85.01112457275391 38.80700134277344 Q 85.98612457275391 40.592001342773436 85.98612457275391 42.842001342773436 Z M 83.1661245727539 42.272001342773436 Q 83.1661245727539 40.71200134277343 82.4761245727539 39.58700134277343 Q 81.7861245727539 38.46200134277344 80.6011245727539 37.87700134277344 Q 79.4161245727539 37.29200134277344 77.9761245727539 37.29200134277344 Q 75.90612457275391 37.29200134277344 74.45112457275391 38.61200134277344 Q 72.9961245727539 39.93200134277344 72.7861245727539 42.272001342773436 L 83.1661245727539 42.272001342773436 Z M 92.31961730957032 37.92200134277344 Q 93.03961730957032 36.51200134277344 94.37461730957031 35.73200134277344 Q 95.70961730957032 34.95200134277344 97.6296173095703 34.95200134277344 L 97.6296173095703 37.772001342773436 L 96.90961730957031 37.772001342773436 Q 92.31961730957032 37.772001342773436 92.31961730957032 42.75200134277344 L 92.31961730957032 51.69200134277344 L 89.58961730957031 51.69200134277344 L 89.58961730957031 35.25200134277344 L 92.31961730957032 35.25200134277344 L 92.31961730957032 37.92200134277344 Z M 115.77826934814453 42.842001342773436 Q 115.77826934814453 43.62200134277344 115.68826934814453 44.492001342773435 L 102.54826934814453 44.492001342773435 Q 102.69826934814454 46.92200134277344 104.21326934814454 48.287001342773436 Q 105.72826934814454 49.65200134277344 107.88826934814453 49.65200134277344 Q 109.65826934814453 49.65200134277344 110.84326934814453 48.827001342773436 Q 112.02826934814453 48.00200134277344 112.50826934814452 46.62200134277344 L 115.44826934814454 46.62200134277344 Q 114.78826934814452 48.992001342773435 112.80826934814453 50.477001342773434 Q 110.82826934814453 51.96200134277344 107.88826934814453 51.96200134277344 Q 105.54826934814453 51.96200134277344 103.70326934814453 50.912001342773436 Q 101.85826934814453 49.86200134277344 100.80826934814453 47.92700134277344 Q 99.75826934814454 45.992001342773435 99.75826934814454 43.44200134277344 Q 99.75826934814454 40.89200134277344 100.77826934814453 38.97200134277344 Q 101.79826934814453 37.05200134277344 103.64326934814453 36.01700134277344 Q 105.48826934814453 34.98200134277344 107.88826934814453 34.98200134277344 Q 110.22826934814454 34.98200134277344 112.02826934814453 36.00200134277344 Q 113.82826934814453 37.022001342773436 114.80326934814454 38.80700134277344 Q 115.77826934814453 40.592001342773436 115.77826934814453 42.842001342773436 Z M 112.95826934814453 42.272001342773436 Q 112.95826934814453 40.71200134277343 112.26826934814453 39.58700134277343 Q 111.57826934814453 38.46200134277344 110.39326934814453 37.87700134277344 Q 109.20826934814453 37.29200134277344 107.76826934814453 37.29200134277344 Q 105.69826934814454 37.29200134277344 104.24326934814454 38.61200134277344 Q 102.78826934814452 39.93200134277344 102.57826934814453 42.272001342773436 L 112.95826934814453 42.272001342773436 Z M 118.35394958496094 43.412001342773436 Q 118.35394958496094 40.89200134277344 119.37394958496094 38.98700134277344 Q 120.39394958496094 37.08200134277344 122.17894958496093 36.03200134277344 Q 123.96394958496094 34.98200134277344 126.18394958496094 34.98200134277344 Q 128.10394958496093 34.98200134277344 129.75394958496094 35.867001342773435 Q 131.40394958496094 36.75200134277344 132.27394958496095 38.19200134277344 L 132.27394958496095 29.492001342773438 L 135.03394958496094 29.492001342773438 L 135.03394958496094 51.69200134277344 L 132.27394958496095 51.69200134277344 L 132.27394958496095 48.602001342773434 Q 131.46394958496094 50.07200134277344 129.87394958496094 51.01700134277344 Q 128.28394958496094 51.96200134277344 126.15394958496094 51.96200134277344 Q 123.96394958496094 51.96200134277344 122.17894958496093 50.882001342773435 Q 120.39394958496094 49.80200134277344 119.37394958496094 47.852001342773434 Q 118.35394958496094 45.90200134277344 118.35394958496094 43.412001342773436 Z M 132.27394958496095 43.44200134277344 Q 132.27394958496095 41.58200134277344 131.52394958496095 40.202001342773436 Q 130.77394958496095 38.82200134277344 129.49894958496094 38.08700134277344 Q 128.22394958496093 37.352001342773434 126.69394958496093 37.352001342773434 Q 125.16394958496093 37.352001342773434 123.90394958496094 38.07200134277344 Q 122.64394958496094 38.79200134277344 121.89394958496094 40.17200134277344 Q 121.14394958496094 41.55200134277344 121.14394958496094 43.412001342773436 Q 121.14394958496094 45.30200134277344 121.89394958496094 46.69700134277344 Q 122.64394958496094 48.092001342773436 123.90394958496094 48.827001342773436 Q 125.16394958496093 49.562001342773435 126.69394958496093 49.562001342773435 Q 128.22394958496093 49.562001342773435 129.49894958496094 48.827001342773436 Q 130.77394958496095 48.092001342773436 131.52394958496095 46.69700134277344 Q 132.27394958496095 45.30200134277344 132.27394958496095 43.44200134277344 Z M 150.39594177246093 38.31200134277344 Q 151.23594177246093 36.842001342773436 152.85594177246094 35.912001342773436 Q 154.47594177246094 34.98200134277344 156.54594177246094 34.98200134277344 Q 158.76594177246093 34.98200134277344 160.53594177246094 36.03200134277344 Q 162.30594177246093 37.08200134277344 163.32594177246094 38.98700134277344 Q 164.34594177246095 40.89200134277344 164.34594177246095 43.412001342773436 Q 164.34594177246095 45.90200134277344 163.32594177246094 47.852001342773434 Q 162.30594177246093 49.80200134277344 160.52094177246093 50.882001342773435 Q 158.73594177246093 51.96200134277344 156.54594177246094 51.96200134277344 Q 154.41594177246094 51.96200134277344 152.81094177246095 51.03200134277344 Q 151.20594177246093 50.102001342773434 150.39594177246093 48.662001342773436 L 150.39594177246093 51.69200134277344 L 147.66594177246094 51.69200134277344 L 147.66594177246094 29.492001342773438 L 150.39594177246093 29.492001342773438 L 150.39594177246093 38.31200134277344 Z M 161.55594177246093 43.412001342773436 Q 161.55594177246093 41.55200134277344 160.80594177246093 40.17200134277344 Q 160.05594177246093 38.79200134277344 158.78094177246095 38.07200134277344 Q 157.50594177246094 37.352001342773434 155.97594177246094 37.352001342773434 Q 154.47594177246094 37.352001342773434 153.20094177246094 38.08700134277344 Q 151.92594177246093 38.82200134277344 151.16094177246094 40.217001342773436 Q 150.39594177246093 41.61200134277344 150.39594177246093 43.44200134277344 Q 150.39594177246093 45.30200134277344 151.16094177246094 46.69700134277344 Q 151.92594177246093 48.092001342773436 153.20094177246094 48.827001342773436 Q 154.47594177246094 49.562001342773435 155.97594177246094 49.562001342773435 Q 157.50594177246094 49.562001342773435 158.78094177246095 48.827001342773436 Q 160.05594177246093 48.092001342773436 160.80594177246093 46.69700134277344 Q 161.55594177246093 45.30200134277344 161.55594177246093 43.412001342773436 Z M 182.1014697265625 35.25200134277344 L 172.2014697265625 59.43200134277344 L 169.3814697265625 59.43200134277344 L 172.6214697265625 51.51200134277344 L 165.9914697265625 35.25200134277344 L 169.0214697265625 35.25200134277344 L 174.1814697265625 48.57200134277344 L 179.2814697265625 35.25200134277344 Z" transform="matrix(1, 0, 0, 1, 0, 0)" style="white-space: pre; fill: rgb(207, 207, 207);"/>
  <path transform="matrix(1, 0, 0, 1, 0, 0)" style="white-space: pre;"/>
  <path d="M 210.20670104980468 51.69200134277344 L 202.5567010498047 41.162001342773436 L 202.5567010498047 51.69200134277344 L 194.86170104980468 51.69200134277344 L 194.86170104980468 18.39200134277344 L 202.5567010498047 18.39200134277344 L 202.5567010498047 36.79700134277344 L 210.1617010498047 26.582001342773438 L 219.6567010498047 26.582001342773438 L 209.2167010498047 39.18200134277344 L 219.7467010498047 51.69200134277344 Z M 247.4642724609375 26.582001342773438 L 247.4642724609375 51.69200134277344 L 239.7692724609375 51.69200134277344 L 239.7692724609375 48.272001342773436 Q 238.5992724609375 49.937001342773435 236.5967724609375 50.94950134277344 Q 234.5942724609375 51.96200134277344 232.1642724609375 51.96200134277344 Q 229.2842724609375 51.96200134277344 227.0792724609375 50.679501342773435 Q 224.8742724609375 49.397001342773436 223.6592724609375 46.967001342773436 Q 222.4442724609375 44.537001342773436 222.4442724609375 41.25200134277344 L 222.4442724609375 26.582001342773438 L 230.0942724609375 26.582001342773438 L 230.0942724609375 40.217001342773436 Q 230.0942724609375 42.73700134277344 231.3992724609375 44.132001342773435 Q 232.7042724609375 45.52700134277344 234.9092724609375 45.52700134277344 Q 237.1592724609375 45.52700134277344 238.4642724609375 44.132001342773435 Q 239.7692724609375 42.73700134277344 239.7692724609375 40.217001342773436 L 239.7692724609375 26.582001342773438 Z M 266.9955407714844 45.16700134277344 L 266.9955407714844 51.69200134277344 L 263.0805407714844 51.69200134277344 Q 258.8955407714844 51.69200134277344 256.5555407714844 49.64450134277344 Q 254.21554077148437 47.59700134277344 254.21554077148437 42.96200134277343 L 254.21554077148437 32.97200134277344 L 251.15554077148437 32.97200134277344 L 251.15554077148437 26.582001342773438 L 254.21554077148437 26.582001342773438 L 254.21554077148437 20.462001342773437 L 261.91054077148436 20.462001342773437 L 261.91054077148436 26.582001342773438 L 266.9505407714844 26.582001342773438 L 266.9505407714844 32.97200134277344 L 261.91054077148436 32.97200134277344 L 261.91054077148436 43.05200134277344 Q 261.91054077148436 44.17700134277344 262.4505407714844 44.67200134277344 Q 262.99054077148435 45.16700134277344 264.2505407714844 45.16700134277344 Z M 281.48302734375 52.05200134277344 Q 278.19802734375 52.05200134277344 275.63302734375 50.92700134277344 Q 273.06802734375 49.80200134277344 271.58302734375 47.84450134277344 Q 270.09802734375 45.88700134277344 269.91802734375 43.45700134277344 L 277.52302734375 43.45700134277344 Q 277.65802734375 44.76200134277344 278.73802734375 45.57200134277344 Q 279.81802734375 46.382001342773435 281.39302734375 46.382001342773435 Q 282.83302734375 46.382001342773435 283.62052734375 45.819501342773435 Q 284.40802734375 45.257001342773435 284.40802734375 44.35700134277344 Q 284.40802734375 43.27700134277344 283.28302734375 42.75950134277344 Q 282.15802734375 42.242001342773435 279.63802734375 41.61200134277344 Q 276.93802734375 40.98200134277344 275.13802734375 40.28450134277344 Q 273.33802734375 39.58700134277343 272.03302734375 38.07950134277344 Q 270.72802734375 36.57200134277344 270.72802734375 34.007001342773435 Q 270.72802734375 31.84700134277344 271.92052734375 30.06950134277344 Q 273.11302734375 28.29200134277344 275.43052734375 27.25700134277344 Q 277.74802734375 26.22200134277344 280.94302734375 26.22200134277344 Q 285.66802734375 26.22200134277344 288.39052734375 28.56200134277344 Q 291.11302734375 30.90200134277344 291.51802734375 34.772001342773436 L 284.40802734375 34.772001342773436 Q 284.22802734375 33.46700134277344 283.26052734375 32.70200134277344 Q 282.29302734375 31.93700134277344 280.71802734375 31.93700134277344 Q 279.36802734375 31.93700134277344 278.64802734375 32.45450134277344 Q 277.92802734375 32.97200134277344 277.92802734375 33.87200134277344 Q 277.92802734375 34.95200134277344 279.07552734375 35.492001342773435 Q 280.22302734375 36.03200134277344 282.65302734375 36.57200134277344 Q 285.44302734375 37.29200134277344 287.19802734375 37.98950134277344 Q 288.95302734375 38.68700134277344 290.28052734375 40.23950134277344 Q 291.60802734375 41.79200134277344 291.65302734375 44.40200134277344 Q 291.65302734375 46.60700134277344 290.41552734375 48.33950134277344 Q 289.17802734375 50.07200134277344 286.86052734375 51.062001342773435 Q 284.54302734375 52.05200134277344 281.48302734375 52.05200134277344 Z M 294.8499963378906 39.092001342773436 Q 294.8499963378906 35.22200134277344 296.31249633789065 32.29700134277344 Q 297.7749963378906 29.372001342773437 300.2949963378906 27.797001342773438 Q 302.81499633789065 26.22200134277344 305.9199963378906 26.22200134277344 Q 308.57499633789064 26.22200134277344 310.57749633789064 27.302001342773437 Q 312.57999633789063 28.38200134277344 313.6599963378906 30.137001342773438 L 313.6599963378906 26.582001342773438 L 321.3549963378906 26.582001342773438 L 321.3549963378906 51.69200134277344 L 313.6599963378906 51.69200134277344 L 313.6599963378906 48.13700134277344 Q 312.5349963378906 49.89200134277344 310.5324963378906 50.97200134277344 Q 308.5299963378906 52.05200134277344 305.87499633789065 52.05200134277344 Q 302.81499633789065 52.05200134277344 300.2949963378906 50.45450134277344 Q 297.7749963378906 48.85700134277344 296.31249633789065 45.90950134277344 Q 294.8499963378906 42.96200134277343 294.8499963378906 39.092001342773436 Z M 313.6599963378906 39.13700134277344 Q 313.6599963378906 36.257001342773435 312.06249633789065 34.59200134277344 Q 310.4649963378906 32.92700134277344 308.1699963378906 32.92700134277344 Q 305.87499633789065 32.92700134277344 304.2774963378906 34.569501342773435 Q 302.6799963378906 36.21200134277344 302.6799963378906 39.092001342773436 Q 302.6799963378906 41.97200134277344 304.2774963378906 43.65950134277344 Q 305.87499633789065 45.34700134277344 308.1699963378906 45.34700134277344 Q 310.4649963378906 45.34700134277344 312.06249633789065 43.68200134277344 Q 313.6599963378906 42.01700134277344 313.6599963378906 39.13700134277344 Z M 342.2300451660156 26.31200134277344 Q 346.6400451660156 26.31200134277344 349.2725451660156 29.169501342773437 Q 351.9050451660156 32.02700134277344 351.9050451660156 37.022001342773436 L 351.9050451660156 51.69200134277344 L 344.25504516601563 51.69200134277344 L 344.25504516601563 38.05700134277344 Q 344.25504516601563 35.537001342773436 342.9500451660156 34.14200134277344 Q 341.6450451660156 32.74700134277344 339.44004516601564 32.74700134277344 Q 337.23504516601565 32.74700134277344 335.93004516601565 34.14200134277344 Q 334.62504516601564 35.537001342773436 334.62504516601564 38.05700134277344 L 334.62504516601564 51.69200134277344 L 326.93004516601565 51.69200134277344 L 326.93004516601565 26.582001342773438 L 334.62504516601564 26.582001342773438 L 334.62504516601564 29.91200134277344 Q 335.7950451660156 28.247001342773437 337.7750451660156 27.27950134277344 Q 339.75504516601563 26.31200134277344 342.2300451660156 26.31200134277344 Z M 361.1313134765625 23.97200134277344 Q 359.1063134765625 23.97200134277344 357.8238134765625 22.77950134277344 Q 356.5413134765625 21.587001342773437 356.5413134765625 19.832001342773438 Q 356.5413134765625 18.03200134277344 357.8238134765625 16.83950134277344 Q 359.1063134765625 15.647001342773436 361.1313134765625 15.647001342773436 Q 363.1113134765625 15.647001342773436 364.3938134765625 16.83950134277344 Q 365.6763134765625 18.03200134277344 365.6763134765625 19.832001342773438 Q 365.6763134765625 21.587001342773437 364.3938134765625 22.77950134277344 Q 363.1113134765625 23.97200134277344 361.1313134765625 23.97200134277344 Z M 364.9563134765625 26.582001342773438 L 364.9563134765625 51.69200134277344 L 357.2613134765625 51.69200134277344 L 357.2613134765625 26.582001342773438 Z M 395.3311242675781 26.582001342773438 L 395.3311242675781 51.69200134277344 L 387.6361242675781 51.69200134277344 L 387.6361242675781 48.272001342773436 Q 386.46612426757815 49.937001342773435 384.4636242675781 50.94950134277344 Q 382.4611242675781 51.96200134277344 380.03112426757815 51.96200134277344 Q 377.1511242675781 51.96200134277344 374.9461242675781 50.679501342773435 Q 372.74112426757813 49.397001342773436 371.5261242675781 46.967001342773436 Q 370.3111242675781 44.537001342773436 370.3111242675781 41.25200134277344 L 370.3111242675781 26.582001342773438 L 377.9611242675781 26.582001342773438 L 377.9611242675781 40.217001342773436 Q 377.9611242675781 42.73700134277344 379.2661242675781 44.132001342773435 Q 380.5711242675781 45.52700134277344 382.7761242675781 45.52700134277344 Q 385.0261242675781 45.52700134277344 386.3311242675781 44.132001342773435 Q 387.6361242675781 42.73700134277344 387.6361242675781 40.217001342773436 L 387.6361242675781 26.582001342773438 Z M 416.212392578125 51.69200134277344 L 408.562392578125 41.162001342773436 L 408.562392578125 51.69200134277344 L 400.867392578125 51.69200134277344 L 400.867392578125 18.39200134277344 L 408.562392578125 18.39200134277344 L 408.562392578125 36.79700134277344 L 416.167392578125 26.582001342773438 L 425.662392578125 26.582001342773438 L 415.222392578125 39.18200134277344 L 425.752392578125 51.69200134277344 Z" transform="matrix(1, 0, 0, 1, 0, 0)" style="white-space: pre; fill: rgb(26, 26, 26);"/>
</svg>