<?xml version="1.0" ?><!DOCTYPE svg  PUBLIC '-//W3C//DTD SVG 1.1//EN'  'http://www.w3.org/Graphics/SVG/1.1/DTD/svg11.dtd'><svg enable-background="new 0 0 1000 1000" height="1000px" id="Layer_1" version="1.1" viewBox="0 0 1000 1000" width="1000px" xml:space="preserve" xmlns="http://www.w3.org/2000/svg" xmlns:xlink="http://www.w3.org/1999/xlink"><g><g><defs><circle cx="500" cy="500" id="SVGID_1_" r="500"/></defs><clipPath id="SVGID_2_"><use overflow="visible" xlink:href="#SVGID_1_"/></clipPath><rect clip-path="url(#SVGID_2_)" fill="#243E90" height="1000" width="1500" x="-250"/><polygon clip-path="url(#SVGID_2_)" fill="#FFCD05" points="520.183,173.225 552.834,149.496 512.477,149.496 500,111.111      487.525,149.496 447.166,149.496 479.818,173.225 467.35,211.616 500,187.887 532.651,211.616    "/><polygon clip-path="url(#SVGID_2_)" fill="#FFCD05" points="520.183,839.892 552.834,816.162 512.477,816.162 500,777.777      487.525,816.162 447.166,816.162 479.818,839.892 467.35,878.282 500,854.553 532.651,878.282    "/><polygon clip-path="url(#SVGID_2_)" fill="#FFCD05" points="186.849,506.558 219.5,482.829 179.142,482.829 166.667,444.444      154.192,482.829 113.833,482.829 146.484,506.558 134.016,544.949 166.667,521.22 199.317,544.949    "/><polygon clip-path="url(#SVGID_2_)" fill="#FFCD05" points="353.516,217.884 386.167,194.155 345.808,194.155 333.333,155.771      320.858,194.155 280.5,194.155 313.151,217.884 300.683,256.267 333.333,232.545 365.984,256.267    "/><polygon clip-path="url(#SVGID_2_)" fill="#FFCD05" points="231.509,339.891 264.16,316.162 223.794,316.162 211.326,277.778      198.852,316.162 158.493,316.162 191.143,339.89 178.667,378.282 211.325,354.553 243.977,378.282    "/><polygon clip-path="url(#SVGID_2_)" fill="#FFCD05" points="231.509,673.225 264.16,649.495 223.794,649.495 211.326,611.111      198.852,649.495 158.493,649.495 191.142,673.225 178.667,711.615 211.325,687.887 243.977,711.615    "/><polygon clip-path="url(#SVGID_2_)" fill="#FFCD05" points="353.516,795.234 386.167,771.512 345.812,771.512 333.333,733.118      320.855,771.512 280.5,771.512 313.151,795.234 300.683,833.623 333.333,809.894 365.984,833.623    "/><polygon clip-path="url(#SVGID_2_)" fill="#FFCD05" points="853.516,506.558 886.167,482.829 845.81,482.829 833.333,444.444      820.857,482.829 780.5,482.829 813.151,506.558 800.682,544.949 833.333,521.22 865.985,544.949    "/><polygon clip-path="url(#SVGID_2_)" fill="#FFCD05" points="686.849,217.883 719.501,194.155 679.143,194.155 666.667,155.771      654.19,194.155 613.833,194.155 646.484,217.883 634.016,256.267 666.667,232.544 699.318,256.267    "/><polygon clip-path="url(#SVGID_2_)" fill="#FFCD05" points="808.858,339.889 841.508,316.162 801.149,316.162 788.674,277.778      776.204,316.162 735.84,316.162 768.491,339.891 756.022,378.282 788.676,354.552 821.334,378.282    "/><polygon clip-path="url(#SVGID_2_)" fill="#FFCD05" points="808.858,673.223 841.508,649.495 801.149,649.495 788.674,611.111      776.204,649.495 735.84,649.495 768.491,673.225 756.022,711.615 788.676,687.885 821.334,711.615    "/><polygon clip-path="url(#SVGID_2_)" fill="#FFCD05" points="686.852,795.234 719.501,771.512 679.145,771.512 666.667,733.118      654.188,771.512 613.833,771.512 646.482,795.234 634.016,833.623 666.667,809.894 699.318,833.623    "/></g></g></svg>