<?xml version="1.0" encoding="utf-8"?>
<svg viewBox="-887.281 -359.086 1387.281 772.782" width="1387.281" height="772.782" xmlns="http://www.w3.org/2000/svg" xmlns:bx="https://boxy-svg.com">
  <path style="stroke: rgb(0, 0, 0); fill-rule: evenodd; paint-order: stroke; stroke-width: 0px; fill: rgb(61, 90, 166);" d="M -2054.394 -216.145 C -1599.097 -216.145 -633.279 -683.995 -521.119 318.328 C -263.668 2619.056 840.946 -1319.014 479.095 -984.251 C 117.244 -649.488 -420.566 -723.396 -483.906 -741.842 C -507.461 -748.703 -1965.243 -711.048 -2050.358 -744.715" transform="matrix(-1, 0.000441, -0.000441, -1, -1503.185181, 39.387604)"/>
  <path style="stroke: rgb(0, 0, 0); fill-rule: evenodd; paint-order: stroke; stroke-width: 0px; fill-opacity: 0.4; fill: rgb(61, 90, 166);" d="M -835.197 -173.545 C -354.856 -195.854 549.627 -720.058 818.88 446.148 C 1339.685 2701.896 1989.625 -1311.876 1627.774 -977.112 C 1265.921 -642.348 728.111 -716.256 664.771 -734.702 C 641.216 -741.563 -877.477 -732.234 -962.592 -765.901" transform="matrix(-1, 0.000441, -0.000441, -1, -286.494171, 46.73037)" bx:origin="0.304 0.478"/>
</svg>