<?xml version="1.0" encoding="utf-8"?>
<svg viewBox="-887.281 -359.086 1387.281 772.782" width="1387.281" height="772.782" xmlns="http://www.w3.org/2000/svg" xmlns:bx="https://boxy-svg.com">
  <path style="stroke: rgb(0, 0, 0); fill-rule: evenodd; paint-order: stroke; stroke-width: 0px; fill: rgb(61, 90, 166);" d="M -1020.333 175.555 C -565.036 175.555 400.782 643.405 512.942 -358.918 C 770.393 -2659.645 1875.007 1278.424 1513.156 943.661 C 1151.305 608.898 613.495 682.806 550.155 701.252 C 526.6 708.113 -931.182 670.458 -1016.297 704.125" transform="matrix(1, 0.000441, -0.000441, 1, -0.144475, -0.02955)"/>
  <path style="stroke: rgb(0, 0, 0); fill-rule: evenodd; paint-order: stroke; stroke-width: 0px; fill-opacity: 0.4; fill: rgb(61, 90, 166);" d="M -1001.313 134.074 C -520.972 156.383 383.511 680.587 652.764 -485.619 C 1173.569 -2741.365 1823.507 1272.404 1461.656 937.641 C 1099.805 602.877 561.995 676.785 498.655 695.231 C 475.1 702.092 -1043.593 692.763 -1128.708 726.43" transform="matrix(1, 0.000441, -0.000441, 1, -0.069151, 0.136416)" bx:origin="0.304 0.478"/>
</svg>