<?xml version="1.0" encoding="utf-8"?>
<svg viewBox="-887.281 -359.086 1387.281 772.782" width="1387.281" height="772.782" xmlns="http://www.w3.org/2000/svg">
  <path style="stroke: rgb(0, 0, 0); fill-rule: evenodd; paint-order: stroke; fill: rgb(96, 119, 183); stroke-width: 0px;" d="M -1020.333 175.555 C -565.036 175.555 400.782 643.405 512.942 -358.918 C 770.393 -2659.645 1875.007 1278.424 1513.156 943.661 C 1151.305 608.898 613.495 682.806 550.155 701.252 C 526.6 708.113 -931.182 670.458 -1016.297 704.125" transform="matrix(1, 0.000441, -0.000441, 1, -0.144475, -0.02955)"/>
  <path style="stroke: rgb(0, 0, 0); fill-rule: evenodd; paint-order: stroke; fill: rgb(96, 119, 183); stroke-width: 0px; fill-opacity: 0.4;" d="M -1062.087 6.945 C -637.42 42.222 310.554 720.701 555.156 -434.157 C 1034.856 -2699 1813.667 1271.197 1451.816 936.434 C 1089.965 601.671 552.155 675.579 488.815 694.025 C 465.26 700.886 -992.522 663.231 -1077.637 696.898" transform="matrix(1, 0.000441, -0.000441, 1, -0.029678, -0.097522)"/>
</svg>