<?xml version="1.0" encoding="utf-8"?>
<svg viewBox="-887.281 -359.086 1387.281 772.782" width="1387.281" height="772.782" xmlns="http://www.w3.org/2000/svg" xmlns:bx="https://boxy-svg.com">
  <path style="stroke: rgb(0, 0, 0); fill-rule: evenodd; paint-order: stroke; fill: rgb(96, 119, 183); stroke-width: 0px;" d="M -1020.333 175.555 C -565.036 175.555 400.782 643.405 512.942 -358.918 C 770.393 -2659.645 1875.007 1278.424 1513.156 943.661 C 1151.305 608.898 613.495 682.806 550.155 701.252 C 526.6 708.113 -931.182 670.458 -1016.297 704.125" transform="matrix(1, 0.000441, -0.000441, 1, -0.144475, -0.02955)"/>
  <path style="stroke: rgb(0, 0, 0); fill-rule: evenodd; paint-order: stroke; fill: rgb(96, 119, 183); stroke-width: 0px; fill-opacity: 0.4;" d="M -1001.311 133.092 C -520.97 155.401 383.513 679.605 652.766 -486.601 C 1173.571 -2742.347 1823.509 1271.422 1461.658 936.659 C 1099.807 601.895 561.997 675.803 498.657 694.249 C 475.102 701.11 -1043.591 691.781 -1128.706 725.448" transform="matrix(1, 0.000441, -0.000441, 1, -0.071761, 0.118292)" bx:origin="0.304 0.478"/>
</svg>