<?xml version="1.0" encoding="UTF-8" standalone="no"?>
<svg
   version="1.1"
   width="900"
   height="320"
   viewBox="0 0 25.71429 9.1428569"
   id="svg2239"
   sodipodi:version="0.32"
   inkscape:version="1.1.2 (b8e25be8, 2022-02-05)"
   sodipodi:docname="logo-en.svg"
   inkscape:output_extension="org.inkscape.output.svg.inkscape"
   xmlns:inkscape="http://www.inkscape.org/namespaces/inkscape"
   xmlns:sodipodi="http://sodipodi.sourceforge.net/DTD/sodipodi-0.dtd"
   xmlns:xlink="http://www.w3.org/1999/xlink"
   xmlns="http://www.w3.org/2000/svg"
   xmlns:svg="http://www.w3.org/2000/svg"
   xmlns:rdf="http://www.w3.org/1999/02/22-rdf-syntax-ns#"
   xmlns:cc="http://creativecommons.org/ns#"
   xmlns:dc="http://purl.org/dc/elements/1.1/">
  <metadata
     id="metadata2280">
    <rdf:RDF>
      <cc:Work
         rdf:about="">
        <dc:format>image/svg+xml</dc:format>
        <dc:type
           rdf:resource="http://purl.org/dc/dcmitype/StillImage" />
      </cc:Work>
    </rdf:RDF>
  </metadata>
  <sodipodi:namedview
     inkscape:window-height="763"
     inkscape:window-width="1440"
     inkscape:pageshadow="2"
     inkscape:pageopacity="0.0"
     guidetolerance="10.0"
     gridtolerance="10.0"
     objecttolerance="10.0"
     borderopacity="1.0"
     bordercolor="#666666"
     pagecolor="#ffffff"
     id="base"
     inkscape:zoom="0.6"
     inkscape:cx="677.5"
     inkscape:cy="360.83333"
     inkscape:window-x="0"
     inkscape:window-y="23"
     inkscape:current-layer="layer3"
     inkscape:pagecheckerboard="0"
     showgrid="false"
     showguides="false"
     inkscape:window-maximized="0"
     width="944px" />
  <desc
     id="desc2241">Flag of the European Union</desc>
  <defs
     id="defs2243">
    <g
       id="s">
      <g
         id="c">
        <path
           id="t"
           d="M 0,0 V 1 H 0.5 Z"
           transform="rotate(18,3.1568758,-0.5)" />
        <use
           xlink:href="#t"
           transform="scale(-1,1)"
           id="use2248"
           x="0"
           y="0"
           width="100%"
           height="100%" />
      </g>
      <use
         xlink:href="#c"
         transform="rotate(72)"
         id="use2250"
         x="0"
         y="0"
         width="100%"
         height="100%" />
      <use
         xlink:href="#c"
         transform="rotate(144)"
         id="use2252"
         x="0"
         y="0"
         width="100%"
         height="100%" />
      <use
         xlink:href="#c"
         transform="rotate(-144)"
         id="use2254"
         x="0"
         y="0"
         width="100%"
         height="100%" />
      <use
         xlink:href="#c"
         transform="rotate(-72)"
         id="use2256"
         x="0"
         y="0"
         width="100%"
         height="100%" />
    </g>
    <linearGradient
       gradientUnits="userSpaceOnUse"
       id="linear-gradient"
       x1="32"
       x2="32"
       y1="49.832001"
       y2="43.402">
      <stop
         offset="0"
         stop-color="#81c785"
         id="stop56" />
      <stop
         offset="1"
         stop-color="#66bb6a"
         id="stop58" />
    </linearGradient>
    <linearGradient
       inkscape:collect="always"
       xlink:href="#linear-gradient-2"
       id="linearGradient113"
       gradientUnits="userSpaceOnUse"
       x1="38.953999"
       y1="28.163"
       x2="38.953999"
       y2="13.253" />
    <linearGradient
       gradientUnits="userSpaceOnUse"
       id="linear-gradient-2"
       x1="38.953999"
       x2="38.953999"
       y1="28.163"
       y2="13.253">
      <stop
         offset="0"
         stop-color="#e4f2fc"
         id="stop61" />
      <stop
         offset="1"
         stop-color="#bdddf4"
         id="stop63" />
    </linearGradient>
    <linearGradient
       gradientUnits="userSpaceOnUse"
       id="linear-gradient-3"
       x1="39.613998"
       x2="39.613998"
       y1="44.425999"
       y2="18.357">
      <stop
         offset="0"
         stop-color="#57a0d7"
         id="stop66" />
      <stop
         offset="1"
         stop-color="#3d82c4"
         id="stop68" />
    </linearGradient>
    <linearGradient
       id="linear-gradient-4"
       x1="21.642"
       x2="21.642"
       xlink:href="#linear-gradient-2"
       y1="29.277"
       y2="19.163" />
    <linearGradient
       gradientUnits="userSpaceOnUse"
       id="linear-gradient-5"
       x1="17.921"
       x2="17.921"
       y1="44.202999"
       y2="26.826">
      <stop
         offset="0"
         stop-color="#70b2e2"
         id="stop72" />
      <stop
         offset="1"
         stop-color="#57a0d7"
         id="stop74" />
    </linearGradient>
  </defs>
  <g
     inkscape:groupmode="layer"
     id="layer4"
     inkscape:label="Layer 2"
     style="display:inline;opacity:1">
    <circle
       style="fill:#f9f9f9;fill-opacity:1;stroke-width:0.0153978"
       id="path1692"
       cx="4.8571429"
       cy="4.5714288"
       r="4.2857141" />
    <path
       style="fill:#f9f9f9;fill-opacity:1;stroke-width:1.66667"
       d="M 140.83333,306.63038 C 111.6969,300.65138 88.842682,288.58745 66.897498,267.60225 36.548643,238.58098 20.833333,201.87127 20.833333,160 c 0,-41.87126 15.71531,-78.580987 46.064165,-107.602247 C 96.06303,24.508053 129.98382,10.833333 170,10.833333 c 40.01618,0 73.93697,13.67472 103.1025,41.56442 53.88155,51.524537 61.72193,133.619117 18.55348,194.268917 -8.11471,11.40083 -26.41286,29.44258 -37.48931,36.964 -16.51382,11.21365 -38.83257,20.20233 -59.0561,23.78436 -13.27806,2.35184 -40.94154,1.95192 -54.27724,-0.78465 z m 22.49446,-22.45475 c 2.6977,-4.36496 7.16433,-4.92376 11.58186,-1.44893 5.48485,4.31438 6.86104,3.19347 4.47668,-3.6463 -1.61681,-4.638 -1.39438,-5.62192 1.89064,-8.36297 2.04766,-1.7086 4.28553,-3.13148 4.97303,-3.16198 0.6875,-0.0305 1.25,-0.80545 1.25,-1.72212 0,-0.91666 -2.8915,-1.66666 -6.42557,-1.66666 -5.74014,0 -6.58462,-0.54675 -7.91666,-5.12555 -0.82011,-2.81905 -2.2411,-5.12555 -3.15777,-5.12555 -0.91667,0 -2.33766,2.3065 -3.15777,5.12555 -1.33204,4.5788 -2.17652,5.12555 -7.91666,5.12555 -7.7267,0 -8.0659,1.40081 -1.41251,5.83333 2.81659,1.87643 4.63252,4.31157 4.15476,5.5715 -2.24955,5.9324 -2.71934,10.26183 -1.11353,10.26183 0.96194,0 2.21002,-0.74596 2.7735,-1.6577 z m -52.07516,-16.64771 c 4.19032,-3.29612 4.21398,-3.29612 8.40431,0 6.27286,4.93423 7.81757,4.23895 5.72565,-2.57715 -1.7133,-5.58244 -1.51402,-6.13169 3.906,-10.7656 L 135,249.30213 l -7.78424,-0.0677 c -7.26631,-0.0632 -7.85703,-0.39915 -8.87823,-5.04862 -1.58858,-7.23275 -3.63153,-7.53672 -5.83247,-0.8678 -1.77061,5.36495 -2.47086,5.84862 -8.46765,5.84862 -7.849277,0 -8.202988,1.3937 -1.48045,5.83333 5.03135,3.32275 5.3483,5.16133 2.27183,13.1785 -1.38704,3.61457 1.35455,3.33692 6.42384,-0.65058 z m 109.04972,0.032 c 4.14823,-3.263 4.17677,-3.26205 8.99238,0.29828 5.90572,4.36628 7.12205,3.47955 4.71165,-3.43493 -1.64203,-4.71034 -1.4167,-5.63822 2.07582,-8.54814 2.15478,-1.79535 4.4803,-3.2892 5.1678,-3.3197 0.6875,-0.0305 1.25,-0.80543 1.25,-1.7221 0,-0.91666 -2.94183,-1.66666 -6.53742,-1.66666 -5.99678,0 -6.69703,-0.48367 -8.46765,-5.84869 -2.20093,-6.66891 -4.24388,-6.36495 -5.83246,0.8678 -1.0212,4.64947 -1.61192,4.98539 -8.87824,5.04862 L 205,249.3021 l 5.71142,4.88303 c 5.42001,4.63392 5.6193,5.18317 3.906,10.7656 -2.08827,6.8042 -0.5473,7.51145 5.68493,2.60917 z M 80.914917,228.39352 c 3.032176,2.23708 5.729896,3.85056 5.994931,3.58551 0.265037,-0.26503 -0.376391,-3.27838 -1.425393,-6.69635 -1.83824,-5.98953 -1.700547,-6.39121 3.804135,-11.09751 L 95,209.30213 87.083333,209.2344 c -4.354166,-0.0373 -7.916666,-0.76892 -7.916666,-1.6259 0,-0.857 -0.837124,-3.6695 -1.860275,-6.25 L 75.446118,196.66667 73.417093,202.5 c -1.830306,5.26203 -2.709111,5.88353 -8.97306,6.34583 -3.819218,0.28187 -6.941876,1.03187 -6.939241,1.66667 0.0027,0.63478 2.276111,2.65417 5.05217,4.4875 3.648593,2.40957 4.805586,4.2571 4.174901,6.66667 -0.479861,1.83333 -1.38776,5.20833 -2.017551,7.5 l -1.145075,4.16666 5.916315,-4.5036 5.916315,-4.50361 z m 178.143683,0.0195 5.53953,-4.08695 5.91632,4.50361 5.91632,4.5036 -1.14509,-4.16666 c -0.62978,-2.29167 -1.53768,-5.66667 -2.01755,-7.5 -0.63068,-2.40957 0.52632,-4.2571 4.1749,-6.66667 2.77607,-1.83333 5.04954,-3.85272 5.05217,-4.4875 0.003,-0.6348 -3.12002,-1.3848 -6.93923,-1.66667 -6.26395,-0.4623 -7.14275,-1.0838 -8.97307,-6.34583 l -2.02902,-5.83333 -1.86028,4.69183 c -1.02315,2.5805 -1.86027,5.393 -1.86027,6.25 0,0.85698 -3.5625,1.58865 -7.91666,1.6259 l -7.91667,0.0677 5.62732,4.81283 c 5.67666,4.85503 5.98166,6.74783 2.53481,15.7302 -1.36315,3.5523 -0.61235,3.36995 5.89647,-1.4321 z m -14.89193,-39.5556 c 0,-4.5721 -1.10235,-8.16155 -3.19902,-10.41667 -2.90245,-3.12179 -21.75468,-34.66749 -39.14492,-65.50173 -10.25993,-18.191695 -12.40996,-17.955672 -24.0084,2.63554 -11.94482,21.20619 -14.39033,25.23714 -15.31433,25.2428 -0.45833,0.003 -4.48115,-6.36746 -8.9396,-14.15613 -6.24095,-10.90261 -8.92554,-14.14951 -11.66667,-14.11031 -2.8522,0.0408 -7.20548,6.36178 -21.88571,31.77817 -10.07892,17.44999 -19.64142,32.91833 -21.25,34.37406 -1.933623,1.7499 -2.924687,5.10073 -2.924687,9.8885 v 7.24168 H 170 244.16667 Z M 66.968797,174.35339 c 5.339756,3.30016 5.987285,3.40578 4.992893,0.81443 -3.388022,-8.82904 -3.106028,-10.51584 2.495967,-14.93019 L 80,155.8703 72.98357,155.8518 C 66.246888,155.834 65.887502,155.56751 63.969757,149.16665 62.871197,145.5 61.415595,142.5 60.735087,142.5 c -0.680509,0 -1.898657,2.8125 -2.706997,6.25 -1.383022,5.88136 -1.908883,6.29915 -8.915567,7.08333 L 41.666667,156.66667 47.202405,160 c 5.683793,3.42248 6.110333,5.85647 2.612182,14.90599 -1.169594,3.02568 -0.847519,2.98923 4.883283,-0.5526 l 6.135463,-3.79192 z m 218.333333,0 c 5.7308,3.54183 6.05287,3.57828 4.88329,0.5526 C 286.68727,165.85647 287.1138,163.42248 292.7976,160 l 5.53573,-3.33333 -7.44585,-0.83334 c -7.00668,-0.78418 -7.53255,-1.20197 -8.91556,-7.08333 -1.87804,-7.98641 -3.44975,-7.90063 -5.91354,0.32273 -1.84808,6.16835 -2.40265,6.60415 -9.01381,7.08333 L 260,156.66667 265.53573,160 c 5.6838,3.42248 6.11034,5.85647 2.61219,14.90599 -1.16959,3.02568 -0.84752,2.98923 4.88328,-0.5526 l 6.13547,-3.79192 z m -214.539067,-55.3983 4.794755,-3.54492 4.978375,3.54492 c 6.743484,4.80178 7.167779,4.54211 4.576957,-2.80105 -2.236295,-6.33834 -2.231817,-6.35086 3.727678,-10.41667 l 5.966665,-4.0707 -7.264615,-0.83334 c -6.367866,-0.73046 -7.487525,-1.487202 -9.070413,-6.13038 -2.671198,-7.835577 -3.563303,-7.92012 -5.772335,-0.547028 -1.919282,6.405988 -2.285807,6.679238 -9.017033,6.722248 l -7.01643,0.0448 5.518543,4.57871 c 5.001028,4.14934 5.352693,5.01493 3.75,9.23033 -3.308898,8.70307 -2.357422,9.53535 4.827853,4.22304 z m 188.700737,0 4.97838,-3.54492 4.99325,3.69168 c 6.11214,4.51889 7.37132,3.58841 4.8667,-3.59633 -1.80918,-5.18982 -1.6098,-5.75255 3.5573,-10.04024 l 5.4739,-4.54228 -7.01643,-0.0448 c -6.73122,-0.043 -7.09775,-0.31626 -9.01703,-6.722247 -2.20904,-7.373091 -3.10114,-7.288548 -5.77234,0.547029 -1.58288,4.643178 -2.70255,5.399918 -9.07041,6.130388 l -7.26462,0.83333 5.96667,4.0707 c 5.9595,4.06581 5.96398,4.07833 3.72768,10.41667 -2.59082,7.34316 -2.16653,7.60283 4.57695,2.80105 z m -148.70074,-40.000005 4.79476,-3.544917 4.97837,3.544917 c 6.74349,4.801783 7.16778,4.542118 4.57696,-2.801048 -2.23621,-6.338095 -2.23159,-6.351012 3.72589,-10.416667 l 5.96488,-4.070703 -7.64897,-0.501057 c -7.26789,-0.476093 -7.70271,-0.787482 -8.72749,-6.25 C 117.05011,47.573687 114.94099,47.603715 112.5,55 c -1.78706,5.414833 -2.42408,5.83655 -8.87925,5.878168 l -6.954083,0.04483 5.518543,4.578711 c 5.00103,4.149332 5.35269,5.014927 3.75,9.23033 -3.3089,8.703064 -2.35742,9.535344 4.82785,4.223042 z m 109.13831,-0.0087 4.51755,-3.553513 5.0049,3.700275 c 6.09573,4.506767 7.38438,3.601165 4.92296,-3.459627 -1.75005,-5.020205 -1.51841,-5.672488 3.5573,-10.017343 l 5.42925,-4.647408 -6.95408,-0.06773 C 229.93153,60.838265 229.285,60.408587 227.5,55 c -2.441,-7.396285 -4.55012,-7.426313 -5.92747,-0.08438 -1.02476,5.462518 -1.4596,5.773906 -8.72748,6.25 l -7.64897,0.50105 5.96487,4.070703 c 5.95748,4.065655 5.96212,4.078572 3.7259,10.416667 -2.55083,7.229846 -1.42427,7.857201 5.01452,2.79245 z m -56.57358,-13.10409 c 2.6977,-4.364967 7.16433,-4.923758 11.58186,-1.448932 5.48485,4.314385 6.86104,3.193467 4.47668,-3.646301 -1.61681,-4.638002 -1.39438,-5.621912 1.89064,-8.362962 2.04766,-1.708595 4.28553,-3.131488 4.97303,-3.161985 0.6875,-0.0305 1.25,-0.805448 1.25,-1.722115 0,-0.916667 -2.8915,-1.666667 -6.42557,-1.666667 -5.74014,0 -6.58462,-0.546746 -7.91666,-5.125553 -1.90247,-6.539578 -4.41308,-6.539578 -6.31554,0 -1.33204,4.578807 -2.17652,5.125553 -7.91666,5.125553 -7.7267,0 -8.0659,1.400822 -1.41251,5.833334 2.81659,1.876426 4.63252,4.311573 4.15476,5.571501 C 159.41827,63.170572 158.94848,67.5 160.55429,67.5 c 0.96194,0 2.21002,-0.745967 2.7735,-1.657705 z"
       id="path15369"
       transform="scale(0.02857143)" />
  </g>
  <g
     transform="matrix(0.51965607,0,0,0.51965607,4.8571469,4.6210516)"
     fill="#fc0"
     id="g2260"
     style="fill:#000000">
    <use
       xlink:href="#s"
       transform="translate(0,-6)"
       id="use2262"
       style="fill:#000000"
       x="0"
       y="0"
       width="100%"
       height="100%" />
    <g
       id="r"
       style="fill:#000000">
      <use
         xlink:href="#s"
         transform="rotate(72,-5.0759451,0.53350333)"
         id="use2265"
         style="fill:#000000"
         x="0"
         y="0"
         width="100%"
         height="100%" />
      <use
         xlink:href="#s"
         transform="rotate(72,-4.6626491,-2.0759451)"
         id="use2267"
         style="fill:#000000"
         x="0"
         y="0"
         width="100%"
         height="100%" />
      <use
         xlink:href="#s"
         transform="translate(6)"
         id="use2269"
         style="fill:#000000"
         x="0"
         y="0"
         width="100%"
         height="100%" />
      <use
         xlink:href="#s"
         transform="rotate(144,-2.1106967,-2.3441661)"
         id="use2271"
         style="fill:#000000"
         x="0"
         y="0"
         width="100%"
         height="100%" />
      <use
         xlink:href="#s"
         transform="rotate(-144,-2.3441661,-2.1106967)"
         id="use2273"
         style="fill:#000000"
         x="0"
         y="0"
         width="100%"
         height="100%" />
    </g>
    <use
       xlink:href="#s"
       transform="translate(0,6)"
       id="use2275"
       style="fill:#000000"
       x="0"
       y="0"
       width="100%"
       height="100%" />
    <use
       xlink:href="#r"
       transform="scale(-1,1)"
       id="use2277"
       style="fill:#000000"
       x="0"
       y="0"
       width="100%"
       height="100%" />
  </g>
  <g
     inkscape:groupmode="layer"
     id="layer3"
     inkscape:label="Layer 1"
     style="display:inline">
    <text
       xml:space="preserve"
       style="font-style:normal;font-variant:normal;font-weight:500;font-stretch:normal;font-size:1.52381px;line-height:1.25;font-family:'.Arabic UI Text';-inkscape-font-specification:'.Arabic UI Text, Medium';font-variant-ligatures:normal;font-variant-caps:normal;font-variant-numeric:normal;font-variant-east-asian:normal;fill:#000000;fill-opacity:1;stroke:none;stroke-width:0.0285714"
       x="10.485863"
       y="4.0450664"
       id="text4935"><tspan
         sodipodi:role="line"
         style="font-style:normal;font-variant:normal;font-weight:500;font-stretch:normal;font-size:1.52381px;font-family:'.Arabic UI Text';-inkscape-font-specification:'.Arabic UI Text, Medium';font-variant-ligatures:normal;font-variant-caps:normal;font-variant-numeric:normal;font-variant-east-asian:normal;stroke-width:0.0285714"
         x="10.485863"
         y="4.0450664"
         id="tspan7919">EUROCARPATHIAN </tspan><tspan
         sodipodi:role="line"
         style="font-style:normal;font-variant:normal;font-weight:500;font-stretch:normal;font-size:1.52381px;font-family:'.Arabic UI Text';-inkscape-font-specification:'.Arabic UI Text, Medium';font-variant-ligatures:normal;font-variant-caps:normal;font-variant-numeric:normal;font-variant-east-asian:normal;stroke-width:0.0285714"
         x="10.485863"
         y="5.9780002"
         id="tspan19778">INITIATIVE</tspan></text>
  </g>
  <g
     id="g111"
     transform="matrix(0.07715628,0,0,0.07715628,2.3881487,1.759634)"
     style="display:inline">
    <path
       class="cls-1"
       d="m 7,43.263 h 50 a 2,2 0 0 1 2,2 V 49.6 H 5 v -4.337 a 2,2 0 0 1 2,-2 z"
       id="path79"
       style="fill:url(#linear-gradient)" />
    <path
       class="cls-2"
       d="m 37.238,27.212 c 4.054,-0.286 6.147,-2.895 8.3,-4.533 L 41.347,15.4 a 2,2 0 0 0 -3.466,0 l -5.509,9.569 c 0.713,1.391 2.135,2.431 4.866,2.243 z"
       id="path81"
       style="fill:url(#linearGradient113)" />
    <path
       class="cls-3"
       d="M 57.386,43.263 45.536,22.679 c -2.151,1.638 -4.244,4.247 -8.3,4.533 -2.731,0.192 -4.153,-0.852 -4.866,-2.24 L 21.842,43.263 Z"
       id="path83"
       style="fill:url(#linear-gradient-3)" />
    <path
       class="cls-4"
       d="m 27.056,26.66 -3.979,-6.912 a 1.689,1.689 0 0 0 -2.926,0 l -3.923,6.815 a 16.692,16.692 0 0 1 5.495,1.212 c 2.754,1.081 4.377,0.249 5.333,-1.115 z"
       id="path85"
       style="fill:url(#linear-gradient-4)" />
    <path
       class="cls-5"
       d="m 27.056,26.66 c -0.958,1.364 -2.579,2.2 -5.333,1.115 a 16.692,16.692 0 0 0 -5.495,-1.212 l -9.614,16.7 h 15.228 l 7.386,-12.83 z"
       id="path87"
       style="fill:url(#linear-gradient-5)" />
  </g>
</svg>
