<?xml version="1.0" encoding="UTF-8" standalone="no"?>
<svg
   version="1.1"
   width="945"
   height="630"
   viewBox="0 0 27 18"
   id="svg2239"
   sodipodi:version="0.32"
   inkscape:version="1.1.2 (b8e25be8, 2022-02-05)"
   sodipodi:docname="logo.svg"
   inkscape:output_extension="org.inkscape.output.svg.inkscape"
   xmlns:inkscape="http://www.inkscape.org/namespaces/inkscape"
   xmlns:sodipodi="http://sodipodi.sourceforge.net/DTD/sodipodi-0.dtd"
   xmlns:xlink="http://www.w3.org/1999/xlink"
   xmlns="http://www.w3.org/2000/svg"
   xmlns:svg="http://www.w3.org/2000/svg"
   xmlns:rdf="http://www.w3.org/1999/02/22-rdf-syntax-ns#"
   xmlns:cc="http://creativecommons.org/ns#"
   xmlns:dc="http://purl.org/dc/elements/1.1/">
  <metadata
     id="metadata2280">
    <rdf:RDF>
      <cc:Work
         rdf:about="">
        <dc:format>image/svg+xml</dc:format>
        <dc:type
           rdf:resource="http://purl.org/dc/dcmitype/StillImage" />
      </cc:Work>
    </rdf:RDF>
  </metadata>
  <sodipodi:namedview
     inkscape:window-height="788"
     inkscape:window-width="1440"
     inkscape:pageshadow="2"
     inkscape:pageopacity="0.0"
     guidetolerance="10.0"
     gridtolerance="10.0"
     objecttolerance="10.0"
     borderopacity="1.0"
     bordercolor="#666666"
     pagecolor="#ffffff"
     id="base"
     inkscape:zoom="0.6"
     inkscape:cx="349.16667"
     inkscape:cy="361.66667"
     inkscape:window-x="0"
     inkscape:window-y="23"
     inkscape:current-layer="layer4"
     inkscape:pagecheckerboard="0"
     showgrid="false"
     showguides="false"
     inkscape:window-maximized="0" />
  <desc
     id="desc2241">Flag of the European Union</desc>
  <defs
     id="defs2243">
    <g
       id="s">
      <g
         id="c">
        <path
           id="t"
           d="M0,0v1h0.5z"
           transform="translate(0,-1) rotate(18)" />
        <use
           xlink:href="#t"
           transform="scale(-1,1)"
           id="use2248" />
      </g>
      <use
         xlink:href="#c"
         transform="rotate(72)"
         id="use2250" />
      <use
         xlink:href="#c"
         transform="rotate(144)"
         id="use2252" />
      <use
         xlink:href="#c"
         transform="rotate(216)"
         id="use2254" />
      <use
         xlink:href="#c"
         transform="rotate(288)"
         id="use2256" />
    </g>
    <linearGradient
       gradientUnits="userSpaceOnUse"
       id="linear-gradient"
       x1="32"
       x2="32"
       y1="49.832001"
       y2="43.402">
      <stop
         offset="0"
         stop-color="#81c785"
         id="stop56" />
      <stop
         offset="1"
         stop-color="#66bb6a"
         id="stop58" />
    </linearGradient>
    <linearGradient
       inkscape:collect="always"
       xlink:href="#linear-gradient-2"
       id="linearGradient113"
       gradientUnits="userSpaceOnUse"
       x1="38.953999"
       y1="28.163"
       x2="38.953999"
       y2="13.253" />
    <linearGradient
       gradientUnits="userSpaceOnUse"
       id="linear-gradient-2"
       x1="38.953999"
       x2="38.953999"
       y1="28.163"
       y2="13.253">
      <stop
         offset="0"
         stop-color="#e4f2fc"
         id="stop61" />
      <stop
         offset="1"
         stop-color="#bdddf4"
         id="stop63" />
    </linearGradient>
    <linearGradient
       gradientUnits="userSpaceOnUse"
       id="linear-gradient-3"
       x1="39.613998"
       x2="39.613998"
       y1="44.425999"
       y2="18.357">
      <stop
         offset="0"
         stop-color="#57a0d7"
         id="stop66" />
      <stop
         offset="1"
         stop-color="#3d82c4"
         id="stop68" />
    </linearGradient>
    <linearGradient
       id="linear-gradient-4"
       x1="21.642"
       x2="21.642"
       xlink:href="#linear-gradient-2"
       y1="29.277"
       y2="19.163" />
    <linearGradient
       gradientUnits="userSpaceOnUse"
       id="linear-gradient-5"
       x1="17.921"
       x2="17.921"
       y1="44.202999"
       y2="26.826">
      <stop
         offset="0"
         stop-color="#70b2e2"
         id="stop72" />
      <stop
         offset="1"
         stop-color="#57a0d7"
         id="stop74" />
    </linearGradient>
  </defs>
  <g
     inkscape:groupmode="layer"
     id="layer4"
     inkscape:label="Layer 2"
     style="opacity:1">
    <circle
       style="fill:#f9f9f9;stroke-width:0.027716;fill-opacity:1"
       id="path1692"
       cx="13.5"
       cy="9"
       r="7.7142859" />
  </g>
  <g
     transform="matrix(0.93538094,0,0,0.93538094,13.5,9.0893209)"
     fill="#fc0"
     id="g2260"
     style="fill:#000000">
    <use
       xlink:href="#s"
       transform="translate(0,-6)"
       id="use2262"
       style="fill:#000000"
       x="0"
       y="0"
       width="100%"
       height="100%" />
    <g
       id="r"
       style="fill:#000000">
      <use
         xlink:href="#s"
         transform="rotate(72,-5.0759451,0.53350333)"
         id="use2265"
         style="fill:#000000"
         x="0"
         y="0"
         width="100%"
         height="100%" />
      <use
         xlink:href="#s"
         transform="rotate(72,-4.6626491,-2.0759451)"
         id="use2267"
         style="fill:#000000"
         x="0"
         y="0"
         width="100%"
         height="100%" />
      <use
         xlink:href="#s"
         transform="translate(6)"
         id="use2269"
         style="fill:#000000"
         x="0"
         y="0"
         width="100%"
         height="100%" />
      <use
         xlink:href="#s"
         transform="rotate(144,-2.1106967,-2.3441661)"
         id="use2271"
         style="fill:#000000"
         x="0"
         y="0"
         width="100%"
         height="100%" />
      <use
         xlink:href="#s"
         transform="rotate(-144,-2.3441661,-2.1106967)"
         id="use2273"
         style="fill:#000000"
         x="0"
         y="0"
         width="100%"
         height="100%" />
    </g>
    <use
       xlink:href="#s"
       transform="translate(0,6)"
       id="use2275"
       style="fill:#000000"
       x="0"
       y="0"
       width="100%"
       height="100%" />
    <use
       xlink:href="#r"
       transform="scale(-1,1)"
       id="use2277"
       style="fill:#000000"
       x="0"
       y="0"
       width="100%"
       height="100%" />
  </g>
  <g
     id="g111"
     transform="matrix(0.1388813,0,0,0.1388813,9.0557984,3.9844837)"
     style="display:inline">
    <path
       class="cls-1"
       d="m 7,43.263 h 50 a 2,2 0 0 1 2,2 V 49.6 H 5 v -4.337 a 2,2 0 0 1 2,-2 z"
       id="path79"
       style="fill:url(#linear-gradient)" />
    <path
       class="cls-2"
       d="m 37.238,27.212 c 4.054,-0.286 6.147,-2.895 8.3,-4.533 L 41.347,15.4 a 2,2 0 0 0 -3.466,0 l -5.509,9.569 c 0.713,1.391 2.135,2.431 4.866,2.243 z"
       id="path81"
       style="fill:url(#linearGradient113)" />
    <path
       class="cls-3"
       d="M 57.386,43.263 45.536,22.679 c -2.151,1.638 -4.244,4.247 -8.3,4.533 -2.731,0.192 -4.153,-0.852 -4.866,-2.24 L 21.842,43.263 Z"
       id="path83"
       style="fill:url(#linear-gradient-3)" />
    <path
       class="cls-4"
       d="m 27.056,26.66 -3.979,-6.912 a 1.689,1.689 0 0 0 -2.926,0 l -3.923,6.815 a 16.692,16.692 0 0 1 5.495,1.212 c 2.754,1.081 4.377,0.249 5.333,-1.115 z"
       id="path85"
       style="fill:url(#linear-gradient-4)" />
    <path
       class="cls-5"
       d="m 27.056,26.66 c -0.958,1.364 -2.579,2.2 -5.333,1.115 a 16.692,16.692 0 0 0 -5.495,-1.212 l -9.614,16.7 h 15.228 l 7.386,-12.83 z"
       id="path87"
       style="fill:url(#linear-gradient-5)" />
  </g>
  <g
     inkscape:groupmode="layer"
     id="layer3"
     inkscape:label="Layer 1" />
</svg>
